<?xml version="1.0" encoding="utf-8"?>
<!-- Generator: Adobe Illustrator 16.0.0, SVG Export Plug-In . SVG Version: 6.00 Build 0)  -->
<!DOCTYPE svg PUBLIC "-//W3C//DTD SVG 1.1//EN" "http://www.w3.org/Graphics/SVG/1.1/DTD/svg11.dtd">
<svg version="1.1" id="Layer_1" xmlns="http://www.w3.org/2000/svg" xmlns:xlink="http://www.w3.org/1999/xlink" x="0px" y="0px"
	 width="612px" height="792px" viewBox="0 0 612 792" enable-background="new 0 0 612 792" xml:space="preserve">
<path id="LK-71" fill="#D4DE25" stroke="#FFFFFF" stroke-width="0.5" d="M366.686,148.68l11.52-5.633l9.971,1.944l14.96,10.313
	l6.518,1.781l5.74,4.627l1.35,4.355l6.48,7.668l1.351-0.143l-0.612,4.86l-3.6,2.609l-6.48,10.135l-1.296,7.308l-0.272,5.778
	l1.229,2.106l3.04,1.278l0.307,7.614l7.326,12.15l0.664,3.006l0.091,2.755l-4.966,3.977l-2.396,5.994l-0.703,3.079l2.053,2.592
	l-1.153,3.15l7.938,6.103l0.469,7.415l9.738,12.024l1.188,16.164l5.85,3.205l-0.035,4.734l4.967,0.179l0,0l3.221,0.126l1.835,3.653
	l0,0l-2.897,2.449l-4.085-0.18l0.358,3.095l-3.524,2.286l-3.312,5.328l-4.557,15.21l-2.932,2.862l-2.124,5.869l0.683,5.759
	l-1.801,7.562l0,0l-4.645,3.814l-4.444,16.58l-34.383,0.9l-6.012,17.188l-0.86,9.881l-9.449,19.494l-1.027,17.227l0.79,12.618
	l1.242,1.224l5.382-0.231l-6.352,7.736l0.34,2.29l-3.889,5.901l2.325,3.549l0,0l-13.448,4.858l-2.199,2.716l-2.59-0.107
	l-8.552,12.783l-4.985-2.452l-3.564,1.229l-0.809,4.263l-1.297,0.612l0.432,11.431l-7.865,5.491l2.376,4.247l-5.832,2.14
	l-0.056,5.116h-2.482l-5.83,4.662l-2.449-0.865l-1.045-3.295l-5.167-0.432l-3.905,7.073l-14.798,7.868l-8.872,0.45l-0.325,3.993l0,0
	l-5.994-2.719l-1.836-3.114l0.055-4.39l-3.456-2.539l2.268-2.932l1.836-8.014l-5.976-13.281l-0.936-11.105l-4.321-3.276
	l-6.624,2.682l-4.428-0.973l3.366-4.177l-1.657-6.532l0.45-3.438l-3.096-6.067l1.584-4.554l-0.217-9.289l-4.95-4.031l-3.653,1.17
	l-0.774,1.53l-4.806-3.255l-3.258,0.086l-6.948-7.989l-6.948-3.78l-5.257-8.156l-3.383-1.887l-2.231,0.682l-3.799-1.294
	l-9.648,1.386l-1.908-3.711l-4.284-3.581l-3.78-0.358l-2.43-1.8l-7.182-0.631l-2.394-3.511l-6.048,0.811l-2.178-4.176l-5.706-0.254
	l-5.365-4.05l-9.72-1.962l-8.226-6.246l0,0l-1.333-0.63l-1.115-3.527l-3.492-1.115l-2.844-4.139l-6.228,0.988l-8.802-5.902
	l-3.925,3.653l-9.719-0.738l-1.332-9.773l-5.203-9.341l0.829-2.953l-3.619-18.882l-7.848-10.439l1.333-9.503l2.394-1.494
	l5.796-0.181l2.395-4.662l2.286-1.152l-0.864-2.52l4.5-4.356l5.382-2.412l5.436-8.316l4.429-12.402l-3.87-10.729l0,0l0.774,1.098
	l5.724,0.792l1.782-41.94l-3.941-13.212l12.941,7.146l2.358-0.954l9.882,2.483l44.1-11.286l0,0l0.936,6.21l-1.638,4.104l2.016,5.382
	l-0.666,3.042l1.26,0.036l3.366,4.645l3.528-0.685l5.364,2.575l-0.197,3.762l1.603,3.763h1.259l-0.756,2.087l1.818,1.243
	l1.368,7.523l9.073,3.6l8.747,1.692l5.147-9.756l6.463-0.809l3.762-3.187l-0.486-5.04l1.494-1.656l-1.386-3.33l0.756-3.834
	l6.678-4.482l4.032-9.27l4.122-0.917l0.828-4.356l1.295,0.306l8.55-7.056l6.409,2.754l13.697,9.666l4.698-0.126l3.797-5.112
	l5.526-2.538l1.91-3.042l7.001-4.482l1.333-5.958l5.687-1.961l4.319-8.119l6.265-3.006l1.908-5.183l3.689-4.77l6.337-3.835
	l-0.037-4.715l-5.112-4.393l-3.671-7.901l-9.972-2.16l-2.629-1.783l1.099-7.956l18.378,0.594l7.813-1.224l8.927-6.534l7.148-3.366
	l5.129,0.215L366.686,148.68z"/>
</svg>
